<svg width="15" height="24" viewBox="0 0 15 24" fill="none" xmlns="http://www.w3.org/2000/svg">
<path d="M4.08398 23.9062C3.19531 23.9062 2.63867 23.3984 2.64844 22.5488L2.85352 11.4062C2.85352 10.9668 2.72656 10.752 2.39453 10.5957C1.02734 9.98047 0.412109 9.32617 0.5 7.44141L0.783203 1.47461C0.802734 0.996094 1.08594 0.703125 1.53516 0.703125C1.97461 0.703125 2.22852 1.00586 2.22852 1.49414L2.15039 7.28516C2.14062 7.64648 2.36523 7.87109 2.6875 7.87109C3.0293 7.87109 3.24414 7.65625 3.25391 7.30469L3.35156 1.30859C3.36133 0.839844 3.63477 0.546875 4.08398 0.546875C4.52344 0.546875 4.79688 0.839844 4.80664 1.30859L4.91406 7.30469C4.91406 7.66602 5.12891 7.87109 5.4707 7.87109C5.79297 7.87109 6.01758 7.64648 6.00781 7.28516L5.93945 1.49414C5.92969 1.00586 6.19336 0.703125 6.63281 0.703125C7.07227 0.703125 7.35547 0.986328 7.375 1.47461L7.6582 7.44141C7.74609 9.32617 7.14062 9.98047 5.77344 10.5957C5.43164 10.752 5.30469 10.9668 5.30469 11.4062L5.50977 22.5488C5.51953 23.3984 4.97266 23.9062 4.08398 23.9062ZM11.9355 15.166C11.9551 14.7656 11.8086 14.5215 11.4473 14.2676L10.9688 13.9453C10.3926 13.5547 10.1484 13.0762 10.1484 12.3535V11.7969C10.1484 7.91016 11.291 3.47656 12.8926 1.2207C13.2246 0.751953 13.4883 0.546875 13.8691 0.546875C14.2793 0.546875 14.6211 0.820312 14.6211 1.32812V22.5879C14.6211 23.4277 14.0742 23.9062 13.1758 23.9062C12.2969 23.9062 11.7305 23.3984 11.75 22.5195L11.9355 15.166Z" fill="#5C7259"/>
</svg>
