<svg width="34" height="34" viewBox="0 0 34 34" fill="none" xmlns="http://www.w3.org/2000/svg">
<path d="M22.3833 3.13078C21.8025 2.54995 20.7967 2.94662 20.7967 3.75412V8.69828C20.7967 10.7666 22.5533 12.4808 24.6925 12.4808C26.0383 12.4949 27.9083 12.4949 29.5092 12.4949C30.3167 12.4949 30.7417 11.5458 30.175 10.9791C28.135 8.92495 24.48 5.22745 22.3833 3.13078Z" fill="#5C7259"/>
<path d="M29.0417 14.4359H24.9475C21.59 14.4359 18.8558 11.7017 18.8558 8.34421V4.25004C18.8558 3.47087 18.2183 2.83337 17.4392 2.83337H11.4325C7.06916 2.83337 3.54166 5.66671 3.54166 10.7242V23.2759C3.54166 28.3334 7.06916 31.1667 11.4325 31.1667H22.5675C26.9308 31.1667 30.4583 28.3334 30.4583 23.2759V15.8525C30.4583 15.0734 29.8208 14.4359 29.0417 14.4359ZM16.2917 25.1459H10.625C10.0442 25.1459 9.56249 24.6642 9.56249 24.0834C9.56249 23.5025 10.0442 23.0209 10.625 23.0209H16.2917C16.8725 23.0209 17.3542 23.5025 17.3542 24.0834C17.3542 24.6642 16.8725 25.1459 16.2917 25.1459ZM19.125 19.4792H10.625C10.0442 19.4792 9.56249 18.9975 9.56249 18.4167C9.56249 17.8359 10.0442 17.3542 10.625 17.3542H19.125C19.7058 17.3542 20.1875 17.8359 20.1875 18.4167C20.1875 18.9975 19.7058 19.4792 19.125 19.4792Z" fill="#5C7259"/>
</svg>
