<svg width="30" height="30" viewBox="0 0 30 30" fill="none" xmlns="http://www.w3.org/2000/svg">
<rect width="30" height="30" rx="15" fill="#FAFAFA"/>
<path d="M20.3333 19.8399H14.2867C13.9867 19.8399 13.74 19.5932 13.74 19.2932C13.74 18.9932 13.9867 18.7466 14.2867 18.7466H20.3333C20.6333 18.7466 20.88 18.9932 20.88 19.2932C20.88 19.5999 20.6333 19.8399 20.3333 19.8399Z" fill="#0A0A0A"/>
<path d="M20.3333 15.6466H14.2867C13.9867 15.6466 13.74 15.3999 13.74 15.0999C13.74 14.7999 13.9867 14.5532 14.2867 14.5532H20.3333C20.6333 14.5532 20.88 14.7999 20.88 15.0999C20.88 15.3999 20.6333 15.6466 20.3333 15.6466Z" fill="#0A0A0A"/>
<path d="M20.3333 11.4468H14.2867C13.9867 11.4468 13.74 11.2002 13.74 10.9002C13.74 10.6002 13.9867 10.3535 14.2867 10.3535H20.3333C20.6333 10.3535 20.88 10.6002 20.88 10.9002C20.88 11.2002 20.6333 11.4468 20.3333 11.4468Z" fill="#0A0A0A"/>
<path d="M10.2733 12.3534C10.1267 12.3534 9.98666 12.2934 9.88666 12.1934L9.28 11.5868C9.06666 11.3734 9.06666 11.0268 9.28 10.8134C9.49333 10.6001 9.84 10.6001 10.0533 10.8134L10.2733 11.0334L11.7 9.60678C11.9133 9.39344 12.26 9.39344 12.4733 9.60678C12.6867 9.82011 12.6867 10.1668 12.4733 10.3801L10.66 12.1934C10.5533 12.2934 10.42 12.3534 10.2733 12.3534Z" fill="#0A0A0A"/>
<path d="M10.2733 16.5532C10.1333 16.5532 9.99333 16.4998 9.88666 16.3932L9.28 15.7865C9.06666 15.5732 9.06666 15.2265 9.28 15.0132C9.49333 14.7998 9.84 14.7998 10.0533 15.0132L10.2733 15.2332L11.7 13.8065C11.9133 13.5932 12.26 13.5932 12.4733 13.8065C12.6867 14.0198 12.6867 14.3665 12.4733 14.5798L10.66 16.3932C10.5533 16.4998 10.4133 16.5532 10.2733 16.5532Z" fill="#0A0A0A"/>
<path d="M10.2733 20.5532C10.1333 20.5532 9.99333 20.4998 9.88666 20.3932L9.28 19.7865C9.06666 19.5732 9.06666 19.2265 9.28 19.0132C9.49333 18.7998 9.84 18.7998 10.0533 19.0132L10.2733 19.2332L11.7 17.8065C11.9133 17.5932 12.26 17.5932 12.4733 17.8065C12.6867 18.0198 12.6867 18.3665 12.4733 18.5798L10.66 20.3932C10.5533 20.4998 10.4133 20.5532 10.2733 20.5532Z" fill="#0A0A0A"/>
</svg>
