<svg width="16" height="16" viewBox="0 0 16 16" fill="none" xmlns="http://www.w3.org/2000/svg">
<path d="M12.6467 14.6667H3.31332C1.31332 14.6667 1.31332 13.7667 1.31332 12.6667V12C1.31332 11.6334 1.61332 11.3334 1.97999 11.3334H13.98C14.3467 11.3334 14.6467 11.6334 14.6467 12V12.6667C14.6467 13.7667 14.6467 14.6667 12.6467 14.6667Z" stroke="#0A0A0A" stroke-width="1.5" stroke-linecap="round" stroke-linejoin="round"/>
<path d="M13.8133 8.66671V11.3334H2.17999V8.66671C2.17999 6.10671 3.98666 3.96671 6.39333 3.45337C6.75333 3.37337 7.12666 3.33337 7.51333 3.33337H8.47999C8.86666 3.33337 9.24666 3.37337 9.60666 3.45337C12.0133 3.97337 13.8133 6.10671 13.8133 8.66671Z" stroke="#0A0A0A" stroke-width="1.5" stroke-linecap="round" stroke-linejoin="round"/>
<path d="M9.66668 3.00004C9.66668 3.16004 9.64668 3.30671 9.60668 3.45337C9.24668 3.37337 8.86668 3.33337 8.48001 3.33337H7.51334C7.12668 3.33337 6.75334 3.37337 6.39334 3.45337C6.35334 3.30671 6.33334 3.16004 6.33334 3.00004C6.33334 2.08004 7.08001 1.33337 8.00001 1.33337C8.92001 1.33337 9.66668 2.08004 9.66668 3.00004Z" stroke="#0A0A0A" stroke-width="1.5" stroke-linecap="round" stroke-linejoin="round"/>
<path d="M10 7.33337H6" stroke="#0A0A0A" stroke-width="1.5" stroke-linecap="round" stroke-linejoin="round"/>
</svg>
