<svg width="10" height="16" viewBox="0 0 10 16" fill="none" xmlns="http://www.w3.org/2000/svg">
<path d="M2.7959 15.3105C2.5293 15.3105 2.31982 15.2386 2.16748 15.0947C2.01514 14.9508 1.94108 14.7498 1.94531 14.4917L2.06592 7.36328C2.06592 7.25326 2.04264 7.15804 1.99609 7.07764C1.94954 6.993 1.87549 6.92952 1.77393 6.88721C1.49463 6.76449 1.26611 6.63118 1.08838 6.4873C0.914876 6.33919 0.790039 6.15088 0.713867 5.92236C0.637695 5.69385 0.608073 5.39339 0.625 5.021L0.796387 1.12354C0.80485 0.983887 0.847168 0.875977 0.92334 0.799805C0.999512 0.723633 1.10319 0.685547 1.23438 0.685547C1.36133 0.685547 1.45866 0.725749 1.52637 0.806152C1.59831 0.882324 1.63428 0.99235 1.63428 1.13623L1.58984 4.92578C1.58984 5.16699 1.70833 5.2876 1.94531 5.2876C2.05111 5.2876 2.13786 5.25798 2.20557 5.19873C2.27751 5.13525 2.31348 5.05062 2.31348 4.94482L2.37695 1.02197C2.37695 0.886556 2.41504 0.780762 2.49121 0.70459C2.56738 0.628418 2.66895 0.590332 2.7959 0.590332C2.92708 0.590332 3.02865 0.628418 3.10059 0.70459C3.17676 0.780762 3.21696 0.886556 3.22119 1.02197L3.28467 4.94482C3.28467 5.05062 3.31852 5.13525 3.38623 5.19873C3.45394 5.25798 3.54281 5.2876 3.65283 5.2876C3.75439 5.2876 3.83691 5.25586 3.90039 5.19238C3.9681 5.12891 4.00195 5.04004 4.00195 4.92578L3.95752 1.13623C3.95752 0.99235 3.99349 0.882324 4.06543 0.806152C4.13737 0.725749 4.2347 0.685547 4.35742 0.685547C4.63672 0.685547 4.78271 0.831543 4.79541 1.12354L4.97314 5.021C4.98584 5.39339 4.9541 5.69385 4.87793 5.92236C4.80176 6.15088 4.6748 6.33919 4.49707 6.4873C4.32357 6.63118 4.09717 6.76449 3.81787 6.88721C3.72054 6.92952 3.64648 6.993 3.5957 7.07764C3.54915 7.15804 3.52588 7.25326 3.52588 7.36328L3.65283 14.4917C3.65283 14.7498 3.57666 14.9508 3.42432 15.0947C3.27197 15.2386 3.0625 15.3105 2.7959 15.3105ZM7.76611 9.77539C7.77035 9.66113 7.74495 9.55957 7.68994 9.4707C7.63916 9.3776 7.55876 9.29085 7.44873 9.21045L7.06787 8.95654C6.9113 8.85075 6.79281 8.71745 6.7124 8.55664C6.632 8.39583 6.5918 8.2054 6.5918 7.98535V7.67432C6.5918 7.03955 6.632 6.40479 6.7124 5.77002C6.79281 5.13525 6.90706 4.52376 7.05518 3.93555C7.20752 3.3431 7.38737 2.79932 7.59473 2.3042C7.80208 1.80485 8.03271 1.37533 8.28662 1.01562C8.39242 0.867513 8.48975 0.759603 8.57861 0.691895C8.66748 0.624186 8.77116 0.590332 8.88965 0.590332C9.00814 0.590332 9.11393 0.630534 9.20703 0.710938C9.30013 0.787109 9.34668 0.905599 9.34668 1.06641V14.5298C9.34668 14.7837 9.26839 14.9762 9.11182 15.1074C8.95524 15.2428 8.74365 15.3105 8.47705 15.3105C8.21468 15.3105 8.00521 15.2365 7.84863 15.0884C7.69206 14.9445 7.618 14.735 7.62646 14.46L7.76611 9.77539Z" fill="black"/>
</svg>
