<svg width="34" height="34" viewBox="0 0 34 34" fill="none" xmlns="http://www.w3.org/2000/svg">
<path d="M22.6667 2.83337H11.3333C7.08333 2.83337 4.25 5.66671 4.25 9.91671V24.0834C4.25 28.3334 7.08333 31.1667 11.3333 31.1667H22.6667C26.9167 31.1667 29.75 28.3334 29.75 24.0834V9.91671C29.75 5.66671 26.9167 2.83337 22.6667 2.83337ZM24.8908 12.0134L21.8025 16.9717C21.7175 17.0992 21.5758 17.1984 21.4342 17.2125C21.4058 17.2125 21.3775 17.2125 21.3633 17.2125C21.2358 17.2125 21.1083 17.17 21.0092 17.085C18.7283 15.0592 15.3 15.0592 13.0192 17.085C12.9058 17.1842 12.75 17.2409 12.5942 17.2125C12.4383 17.1842 12.2967 17.0992 12.2258 16.9717L9.1375 12.0134C8.9675 11.8009 9.01 11.5175 9.20833 11.3334C13.6425 7.38087 20.3433 7.38087 24.7917 11.3334C24.99 11.5175 25.0325 11.8009 24.8908 12.0134Z" fill="#5C7259"/>
</svg>
